HIERARCHY
ROOT ui
{
	 OFFSET 0 0 0
	 CHANNELS 3 XPosition YPosition Z Position
	 EndSite
	 {
	 OFFSET 0 -1 0
	 }
}
ROOT li
{
	 OFFSET 0 0 0
	 CHANNELS 3 XPosition YPosition Z Position
	 EndSite
	 {
	 OFFSET 0 -1 0
	 }
}
ROOT ul
{
	 OFFSET 0 0 0
	 CHANNELS 3 XPosition YPosition Z Position
	 EndSite
	 {
	 OFFSET 0 -1 0
	 }
}
ROOT ll
{
	 OFFSET 0 0 0
	 CHANNELS 3 XPosition YPosition Z Position
	 EndSite
	 {
	 OFFSET 0 -1 0
	 }
}
ROOT tt
{
	 OFFSET 0 0 0
	 CHANNELS 3 XPosition YPosition Z Position
	 EndSite
	 {
	 OFFSET 0 -1 0
	 }
}
ROOT tb
{
	 OFFSET 0 0 0
	 CHANNELS 3 XPosition YPosition Z Position
	 EndSite
	 {
	 OFFSET 0 -1 0
	 }
}
ROOT td
{
	 OFFSET 0 0 0
	 CHANNELS 3 XPosition YPosition Z Position
	 EndSite
	 {
	 OFFSET 0 -1 0
	 }
}
ROOT v
{
	 OFFSET 0 0 0
	 CHANNELS 3 XPosition YPosition Z Position
	 EndSite
	 {
	 OFFSET 0 -1 0
	 }
}
ROOT bn
{
	 OFFSET 0 0 0
	 CHANNELS 3 XPosition YPosition Z Position
	 EndSite
	 {
	 OFFSET 0 -1 0
	 }
}
MOTION
Frames: 19
Frame Time: 0.002
0.0020011560916900636	-0.005230517864227295	0		0.6099215698242187	-2.59023388671875	0		-1.0286068115234375	0.10998726654052735	0		-0.5297909545898437	-3.028663330078125	0		1.6212545166015624	-0.5420270385742187	0		3.1838955078125	-0.5800570068359375	0		4.36830908203125	-0.00918964672088623	0		6.0187998046875	0.5647047119140625	0		-0.22971780395507813	5.8702216796875	0		
-0.014214365959167481	-0.0025433509349822997	0		0.6096487426757813	-2.593746337890625	0		-1.0929730224609375	0.10128188323974609	0		-0.5999392700195313	-3.0222890625	0		1.60505615234375	-0.538326904296875	0		3.23133349609375	-0.6051616821289062	0		4.374771484375	-0.031759780883789064	0		6.02075732421875	0.581208740234375	0		-0.26210751342773436	5.86311279296875	0		
-0.0024545791149139405	0.0068103489875793455	0		0.5952521362304688	-2.5980537109375	0		-1.0923411865234376	0.10076858520507813	0		-0.5253140869140625	-3.02574560546875	0		1.619589599609375	-0.5469971923828125	0		3.2201767578125	-0.5894881591796876	0		4.39230078125	-0.04044636154174805	0		6.02138525390625	0.5807522583007813	0		-0.21232086181640625	5.8779775390625	0		
-0.0019385670423507691	0.0063352718353271486	0		0.6118768920898437	-2.591729248046875	0		-1.103697021484375	0.1104376220703125	0		-0.5946917724609375	-3.019329833984375	0		1.6271988525390626	-0.5405496215820312	0		3.243299072265625	-0.6212295532226563	0		4.39871435546875	-0.04896296691894531	0		6.02189697265625	0.5803245849609375	0		-0.22699052429199218	5.86669384765625	0		
-0.005580533981323242	0.0029439890384674074	0		0.63518896484375	-2.600460693359375	0		-1.03035888671875	0.10505345916748046	0		-0.5253800659179687	-3.028658447265625	0		1.6475848388671874	-0.5422352294921875	0		3.25869873046875	-0.6218387451171875	0		4.41273876953125	-0.07854802703857422	0		6.02518603515625	0.5718910522460937	0		-0.22664002990722656	5.8662490234375	0		
-0.008357582092285156	-0.001425887942314148	0		0.6074979248046875	-2.599506591796875	0		-1.10707958984375	0.105620849609375	0		-0.562067138671875	-3.027598388671875	0		1.689897705078125	-0.5401679077148438	0		3.255913818359375	-0.6271834716796875	0		4.42990966796875	-0.08713911437988281	0		6.017443359375	0.5706312255859375	0		-0.1933245849609375	5.8724169921875	0		
-0.008206982612609864	-0.001799193024635315	0		0.6155270385742188	-2.610976318359375	0		-1.02993603515625	0.10425601196289062	0		-0.5150507202148438	-3.040574951171875	0		1.654119140625	-0.535069091796875	0		3.256069091796875	-0.6275320434570313	0		4.452841796875	-0.10477116394042969	0		6.01738525390625	0.5543047485351562	0		-0.2593790283203125	5.8598857421875	0		
-0.0010901479721069337	0.004773828983306885	0		0.5946908569335938	-2.602041748046875	0		-1.0950311279296876	0.09474175262451172	0		-0.5709829711914063	-3.039201171875	0		1.7131080322265626	-0.5391466064453125	0		3.308906005859375	-0.6435203247070312	0		4.46184423828125	-0.10719013214111328	0		6.02661279296875	0.5698958129882813	0		-0.2281540985107422	5.87814990234375	0		
-0.0011824640035629273	0.004473854064941407	0		0.6725087890625	-2.61133154296875	0		-1.0300018310546875	0.10360409545898437	0		-0.49911041259765626	-3.04442333984375	0		1.7111473388671874	-0.52940966796875	0		3.31199658203125	-0.6298359985351563	0		4.4855595703125	-0.12276308441162109	0		6.0304140625	0.5615885620117187	0		-0.24440190124511718	5.86905322265625	0		
-0.0013920830488204955	0.004211085796356201	0		0.6173348999023438	-2.609888671875	0		-1.0393133544921875	0.0954494171142578	0		-0.5142335205078125	-3.039498779296875	0		1.721966064453125	-0.5278006591796875	0		3.3055498046875	-0.648997314453125	0		4.48535107421875	-0.12299407958984375	0		6.022201171875	0.5614705200195312	0		-0.1916446075439453	5.86911279296875	0		
-0.0057533860206604006	0.0010359200239181518	0		0.66489892578125	-2.62072119140625	0		-1.0436881103515625	0.09126689147949218	0		-0.5145350952148438	-3.039728759765625	0		1.7155450439453126	-0.5359376220703125	0		3.3482021484375	-0.6517476196289063	0		4.50373388671875	-0.14642848205566406	0		6.02087353515625	0.561300048828125	0		-0.22707093811035156	5.86433154296875	0		
-0.006186361789703369	8.442749977111817E-4	0		0.6224503784179688	-2.623372802734375	0		-1.1211026611328125	0.09304799652099609	0		-0.5030613403320312	-3.049076171875	0		1.75410009765625	-0.5376131591796875	0		3.356735107421875	-0.655029052734375	0		4.51227587890625	-0.14870150756835937	0		6.0304228515625	0.5600253295898437	0		-0.2114208526611328	5.87393359375	0		
-0.006723587989807129	6.852489709854126E-4	0		0.6478924560546875	-2.62685791015625	0		-1.121640625	0.09288066101074219	0		-0.5684178466796875	-3.036412841796875	0		1.7454149169921875	-0.54965625	0		3.37337939453125	-0.6413804931640625	0		4.53472509765625	-0.1501194610595703	0		6.02089501953125	0.5610257568359375	0		-0.2450882568359375	5.86719384765625	0		
-0.0033204619884490967	0.0035052850246429443	0		0.613458251953125	-2.612550537109375	0		-1.045294921875	0.09076423645019531	0		-0.49607382202148437	-3.04047412109375	0		1.802754150390625	-0.5525094604492188	0		3.390671875	-0.64771240234375	0		4.55098828125	-0.15842979431152343	0		6.0153583984375	0.5690050659179687	0		-0.22781930541992187	5.86283447265625	0		
-0.008082253456115723	4.5492300391197207E-4	0		0.6606229858398438	-2.623256591796875	0		-1.1280511474609376	0.08869747161865234	0		-0.5666802978515625	-3.03268994140625	0		1.7959332275390625	-0.5605204467773437	0		3.43007666015625	-0.6382975463867188	0		4.55515087890625	-0.16755984497070311	0		6.0144267578125	0.5529501953125	0		-0.2285873260498047	5.8627314453125	0		
-0.008885775566101074	3.775950074195862E-4	0		0.63284130859375	-2.622986083984375	0		-1.051861572265625	0.08763360595703125	0		-0.4975556640625	-3.04066015625	0		1.8270169677734376	-0.569989990234375	0		3.412228515625	-0.6421328125	0		4.5773466796875	-0.1678951110839844	0		6.0226181640625	0.5528036499023438	0		-0.195361328125	5.8682197265625	0		
-0.012807873725891114	-0.0036406359672546385	0		0.6408867797851563	-2.6311513671875	0		-1.1297275390625	0.08854683685302735	0		-0.5632471923828125	-3.027896240234375	0		1.82311181640625	-0.5729947509765625	0		3.442409912109375	-0.63855810546875	0		4.5982587890625	-0.1851958465576172	0		6.0178447265625	0.5608416748046875	0		-0.2624486083984375	5.8550009765625	0		
0.0022395861148834227	-0.005882726192474365	0		0.625929931640625	-2.635008056640625	0		-1.1137315673828125	0.08228446960449219	0		-0.4871451416015625	-3.02791650390625	0		1.857755615234375	-0.6074750366210937	0		3.484548583984375	-0.634118896484375	0		4.62747119140625	-0.17458395385742187	0		6.0259013671875	0.5597310791015625	0		-0.23315196228027343	5.87557763671875	0		
-0.004572450160980224	0.006168027877807617	0		0.643082763671875	-2.62725732421875	0		-1.126569091796875	0.09240402984619141	0		-0.551906982421875	-3.013133544921875	0		1.8705020751953125	-0.6306627197265625	0		3.496701171875	-0.62528564453125	0		4.6265078125	-0.17457748413085938	0		6.02493310546875	0.559746826171875	0		-0.2502814025878906	5.86575537109375	0		
